<svg version="1.1" id="Layer_1" xmlns="http://www.w3.org/2000/svg" xmlns:xlink="http://www.w3.org/1999/xlink" x="0px" y="0px"
	 width="100%" viewBox="0 0 256 197" enable-background="new 0 0 256 197" xml:space="preserve">
<path fill="#010101" opacity="1.000000" stroke="none" 
	d="
M177.000000,198.000000 
	C118.000000,198.000000 59.500008,198.000000 1.000008,198.000000 
	C1.000005,132.333344 1.000005,66.666679 1.000003,1.000017 
	C86.333321,1.000011 171.666641,1.000011 257.000000,1.000006 
	C257.000000,66.666649 257.000000,132.333298 257.000000,197.999969 
	C230.500000,198.000000 204.000000,198.000000 177.000000,198.000000 
M72.042923,135.566467 
	C72.303612,136.046402 72.564308,136.526337 72.865067,137.803589 
	C72.894547,138.867752 72.924019,139.931915 72.486137,141.417450 
	C72.972298,142.302017 73.458458,143.186569 74.448128,144.597183 
	C75.962875,144.050858 77.477631,143.504532 79.523529,143.340240 
	C80.393555,143.869263 81.263580,144.398285 82.752136,144.997787 
	C83.159554,145.085312 83.566978,145.172836 84.556572,145.683746 
	C87.379509,145.425705 90.202438,145.167664 93.678452,144.992004 
	C94.116234,144.977615 94.554016,144.963226 95.427406,145.493378 
	C99.956215,144.999786 104.485023,144.506180 109.488434,144.003799 
	C109.488434,144.003799 109.962875,143.989014 110.423340,143.780792 
	C110.594994,143.499298 110.766647,143.217789 110.933807,142.929733 
	C110.933807,142.929733 110.908157,142.909882 111.555573,143.015305 
	C114.802277,143.609238 118.048973,144.203156 122.012566,144.894119 
	C122.984108,144.880493 123.955650,144.866867 125.312950,145.390335 
	C126.297874,144.728806 127.282806,144.067261 128.683685,143.523605 
	C128.683685,143.523605 129.011276,143.805740 129.219025,144.407272 
	C130.149185,144.602890 131.079346,144.798508 132.820068,144.947723 
	C134.167221,144.878510 135.514389,144.809296 137.322845,145.354675 
	C138.876831,144.896255 140.430817,144.437820 141.988419,143.243561 
	C142.646790,141.813705 143.305161,140.383865 144.010452,139.726471 
	C145.338669,140.484116 146.666901,141.241745 148.739014,142.016815 
	C149.323547,142.219482 150.286987,142.272217 150.435471,142.647430 
	C152.486404,147.830292 154.754150,145.888046 157.719650,143.300293 
	C160.098190,143.827286 162.476730,144.354294 165.613846,144.936905 
	C166.120041,144.920807 166.626251,144.904709 167.744827,144.936905 
	C168.240112,144.631042 168.735382,144.325180 169.741989,143.701233 
	C170.261566,143.099411 170.781143,142.497589 171.337341,141.853348 
	C172.037460,143.169266 172.758194,144.523941 173.559860,146.030746 
	C174.999542,144.319870 175.991348,143.141266 176.912567,142.639435 
	C176.950714,143.090103 176.988861,143.540787 177.158218,144.707153 
	C179.347275,144.825684 181.536316,144.944229 183.804596,145.067047 
	C183.445374,141.821655 183.231888,139.892929 183.012878,137.489609 
	C183.012878,137.489609 183.009552,137.014984 182.988342,136.289001 
	C181.986099,135.201401 180.983856,134.113800 179.992554,132.347961 
	C179.991821,131.896027 179.991074,131.444107 180.720108,130.978485 
	C181.839661,130.238037 182.959213,129.497589 184.980408,128.830734 
	C187.461288,128.839035 189.956757,129.007523 192.416443,128.783340 
	C193.529663,128.681870 195.212677,128.026596 195.497513,127.220047 
	C195.936401,125.977371 195.748535,124.233040 195.197357,122.977783 
	C193.946274,120.128586 192.027313,117.559105 190.897461,114.673271 
	C189.040512,109.930313 187.745010,104.966400 185.857910,100.237267 
	C185.437927,99.184753 183.536377,98.123817 182.332001,98.140694 
	C180.929764,98.160339 179.544052,99.360168 177.628448,100.587158 
	C176.848206,101.393646 176.067963,102.200134 174.965317,103.691696 
	C173.837402,106.847610 172.709488,110.003525 170.747925,113.069901 
	C168.900009,114.448647 166.757324,115.577492 165.304489,117.291176 
	C164.280655,118.498848 164.193710,120.500793 163.041534,121.921066 
	C161.621704,119.530518 160.201874,117.139969 159.230530,115.504547 
	C160.497879,112.948990 161.895081,111.193871 162.238937,109.252205 
	C163.644440,101.315880 157.819885,95.826324 148.125534,98.203049 
	C145.808929,98.124023 143.476761,97.853691 141.181808,98.040627 
	C139.888519,98.145966 137.851593,98.746880 137.583267,99.584061 
	C137.167419,100.881454 137.893555,102.593582 138.290192,104.088844 
	C138.678314,105.552063 139.476562,106.928299 139.719528,108.404488 
	C140.820099,115.091469 138.873505,121.403038 137.054932,128.557541 
	C136.115891,129.708191 135.218735,130.896759 134.223099,131.996140 
	C133.558853,132.729584 132.754318,133.335983 132.002014,134.001831 
	C132.002014,134.001831 131.998856,134.012115 131.164032,134.000366 
	C129.423248,134.766876 127.682465,135.533386 125.457497,136.133087 
	C125.316338,136.037094 125.175179,135.941116 124.756447,135.352982 
	C124.167297,134.902573 123.578156,134.452148 122.737442,133.376968 
	C123.272415,132.555450 124.038116,131.797684 124.286919,130.897079 
	C124.638054,129.626068 124.606773,128.249405 124.688232,126.138939 
	C122.766174,121.971321 121.405472,117.798965 121.866623,112.995369 
	C122.333138,108.135841 121.969498,103.196617 121.969498,97.970284 
	C118.875977,97.970284 116.570908,98.080482 114.280121,97.946442 
	C110.023628,97.697395 110.325241,100.969093 111.265640,102.928612 
	C114.874374,110.448135 114.584785,117.660034 110.096603,125.128395 
	C109.503387,127.378433 108.910164,129.628464 108.154526,132.494522 
	C110.409996,131.885620 111.406487,131.616608 112.755470,131.252426 
	C112.433800,132.829330 112.212570,133.913879 111.965324,135.323792 
	C111.965324,135.323792 111.980827,135.649826 111.498962,135.786285 
	C111.498962,135.786285 111.008713,135.880722 110.611382,135.256104 
	C105.484726,133.585373 107.518990,128.270065 105.728844,124.526421 
	C106.157539,120.651054 106.527252,116.767975 107.032806,112.902657 
	C107.471420,109.549088 105.788101,105.990051 109.261070,102.878143 
	C110.707428,101.582146 110.347481,97.855408 106.294342,97.983131 
	C103.298943,98.077530 100.301315,98.101540 96.763924,97.823090 
	C96.677597,95.321373 95.223579,94.646652 92.894859,94.734169 
	C92.812958,94.685501 92.731056,94.636826 92.649155,94.588150 
	C92.767242,94.724556 92.885330,94.860954 93.009262,95.727821 
	C93.006035,96.458321 93.002800,97.188812 92.089783,97.962868 
	C88.788376,98.109383 85.486977,98.255905 81.745468,97.742905 
	C79.673027,96.777367 77.697899,96.119949 76.224625,98.894325 
	C73.533630,98.801407 70.842628,98.708488 67.602287,98.079231 
	C62.528854,97.959030 58.154099,100.985054 58.040009,105.063560 
	C57.973328,107.447243 58.021694,110.177559 59.088184,112.182961 
	C61.907383,117.484116 67.644699,113.880539 72.881889,116.098648 
	C71.921417,118.461151 70.977745,120.782318 69.253510,123.073639 
	C68.218796,122.176247 67.309708,120.787865 66.123062,120.484238 
	C63.693722,119.862648 61.115349,119.823486 58.598343,119.544495 
	C58.860710,121.317154 58.697769,123.304886 59.465069,124.822197 
	C61.780087,129.400085 65.756706,129.362000 70.219131,128.529556 
	C70.194366,128.921280 70.169594,129.313004 70.230873,130.322067 
	C70.495399,130.886978 70.759926,131.451889 71.019264,132.687378 
	C71.350708,133.457596 71.682152,134.227798 72.042923,135.566467 
M117.007889,62.327751 
	C124.896118,62.327751 132.784348,62.327751 141.762527,62.327751 
	C140.591599,60.207748 140.249649,58.514153 139.299362,58.040146 
	C132.447449,54.622410 125.581467,50.245541 117.873970,56.202339 
	C117.109421,56.793232 115.797432,56.846581 115.278656,57.548111 
	C114.289337,58.885944 113.689102,60.511505 112.428955,62.487015 
	C111.228081,65.707123 113.394753,65.924812 116.108849,66.696587 
	C116.735512,68.391655 117.755707,70.059433 117.875702,71.789635 
	C117.990601,73.446396 117.673027,75.773872 116.598640,76.665184 
	C115.771935,77.351021 112.788063,76.845016 111.960960,75.861702 
	C109.328293,72.731804 107.255226,69.131195 104.619637,65.195297 
	C100.418922,65.518387 95.376297,65.906235 90.056915,66.315369 
	C91.796471,71.090454 93.417534,75.540268 94.503540,80.417343 
	C93.390167,82.319084 92.276794,84.220818 90.922401,86.534248 
	C92.852188,86.806015 94.127663,86.985634 95.288361,87.891159 
	C95.383049,88.854332 95.477737,89.817513 95.004921,91.029922 
	C95.221466,91.843628 95.438004,92.657333 95.654549,93.471039 
	C96.020203,93.325638 96.385849,93.180244 96.751503,93.034843 
	C96.492249,92.320694 96.232994,91.606544 96.842369,90.801674 
	C117.192551,90.801674 137.542740,90.801674 157.892914,90.801674 
	C158.131195,90.229591 158.369476,89.657501 158.607758,89.085419 
	C157.511810,88.393974 156.459030,87.194054 155.312668,87.096756 
	C149.523438,86.605453 143.710007,86.151527 137.904785,86.147942 
	C125.610588,86.140350 113.316216,86.420219 101.080017,86.276535 
	C101.080017,86.276535 101.002960,85.975060 101.841064,85.835411 
	C102.583794,85.540558 103.320068,85.007347 104.070221,84.987053 
	C113.362015,84.735596 122.655029,84.488426 131.949341,84.383499 
	C140.531799,84.286598 149.116196,84.362869 156.760590,84.362869 
	C158.929443,78.413750 161.071472,72.538185 163.348877,66.291290 
	C158.488159,65.944473 154.056168,65.646729 149.627487,65.305923 
	C146.552567,65.069313 144.049255,67.362015 144.621750,69.414505 
	C145.704773,73.297318 143.386597,74.448982 140.542847,75.890114 
	C138.879150,75.343552 137.215469,74.796982 135.259308,73.618744 
	C136.019302,70.809723 136.779297,68.000702 137.668991,64.712318 
	C130.421326,64.712318 123.194923,64.712318 116.075630,64.155449 
	C116.081192,63.592255 116.086746,63.029057 117.007889,62.327751 
M127.346634,118.014099 
	C131.599365,118.820335 134.669876,115.876854 135.461517,112.977127 
	C136.401321,109.534714 135.902283,105.010429 134.356003,101.746513 
	C132.252747,97.306915 127.621277,97.244431 123.274094,98.459465 
	C123.274094,100.443260 123.274094,102.203987 123.274094,103.882370 
	C124.897003,104.374977 126.257088,104.787804 127.511909,105.168686 
	C127.802414,111.081100 127.802414,111.081100 123.163910,112.517883 
	C123.398506,114.868126 121.244850,118.469894 127.346634,118.014099 
M161.291031,63.792374 
	C165.328888,63.694324 166.496323,61.935345 168.465439,52.403603 
	C161.809998,56.571365 152.486893,53.931854 147.684799,62.639687 
	C152.517212,63.032650 156.474884,63.354481 161.291031,63.792374 
M101.815361,57.731266 
	C96.250847,56.141399 90.686333,54.551533 84.382858,52.750534 
	C86.108612,57.146740 87.467575,60.608589 88.819328,64.052063 
	C94.490364,63.571980 99.660675,63.134281 105.731812,62.620327 
	C104.426163,60.701759 103.498940,59.339260 101.815361,57.731266 
M147.478424,144.352173 
	C147.530975,144.151306 147.583527,143.950439 147.636093,143.749573 
	C147.507706,143.878601 147.379318,144.007629 147.478424,144.352173 
M131.833923,129.258118 
	C131.886215,129.416824 131.938492,129.575546 131.990768,129.734253 
	C132.042191,129.574738 132.093613,129.415237 131.833923,129.258118 
z"/>
<path fill="#F6F6F6" opacity="1.000000" stroke="none" 
	d="
M141.256561,76.166138 
	C143.386597,74.448982 145.704773,73.297318 144.621750,69.414505 
	C144.049255,67.362015 146.552567,65.069313 149.627487,65.305923 
	C154.056168,65.646729 158.488159,65.944473 163.348877,66.291290 
	C161.071472,72.538185 158.929443,78.413750 156.760590,84.362869 
	C149.116196,84.362869 140.531799,84.286598 131.949341,84.383499 
	C122.655029,84.488426 113.362015,84.735596 104.070221,84.987053 
	C103.320068,85.007347 102.583794,85.540558 101.313553,85.496262 
	C99.228333,85.058800 97.670616,84.960495 96.370918,84.878471 
	C95.891060,83.117851 95.464821,81.553963 95.038589,79.990082 
	C93.417534,75.540268 91.796471,71.090454 90.056915,66.315369 
	C95.376297,65.906235 100.418922,65.518387 104.619637,65.195297 
	C107.255226,69.131195 109.328293,72.731804 111.960960,75.861702 
	C112.788063,76.845016 115.771935,77.351021 116.598640,76.665184 
	C117.673027,75.773872 117.990601,73.446396 117.875702,71.789635 
	C117.755707,70.059433 116.735512,68.391655 115.863342,66.023819 
	C115.734726,65.138138 115.851624,64.925232 115.968521,64.712318 
	C123.194923,64.712318 130.421326,64.712318 137.668991,64.712318 
	C136.779297,68.000702 136.019302,70.809723 135.401810,74.287567 
	C136.753387,78.641335 138.879349,77.996948 141.256561,76.166138 
z"/>
<path fill="#F0F0F0" opacity="1.000000" stroke="none" 
	d="
M171.581558,113.159439 
	C172.709488,110.003525 173.837402,106.847610 175.477158,103.347824 
	C177.950165,102.925865 179.961411,102.884422 178.151169,100.047844 
	C179.544052,99.360168 180.929764,98.160339 182.332001,98.140694 
	C183.536377,98.123817 185.437927,99.184753 185.857910,100.237267 
	C187.745010,104.966400 189.040512,109.930313 190.897461,114.673271 
	C192.027313,117.559105 193.946274,120.128586 195.197357,122.977783 
	C195.748535,124.233040 195.936401,125.977371 195.497513,127.220047 
	C195.212677,128.026596 193.529663,128.681870 192.416443,128.783340 
	C189.956757,129.007523 187.461288,128.839035 184.364288,128.461502 
	C183.631058,126.532181 183.318512,124.956024 183.445038,123.415955 
	C183.612564,121.377037 184.123566,119.366341 184.522934,117.143158 
	C181.304520,118.563759 177.955185,119.007698 177.271393,120.597855 
	C176.353867,122.731522 177.497131,125.751366 177.336365,128.533417 
	C174.461578,128.723709 171.998230,128.915604 169.552612,128.782349 
	C166.518677,128.617050 165.167374,125.768143 166.550797,123.257507 
	C168.364166,119.966667 169.916779,116.532150 171.581558,113.159439 
M182.910233,114.577034 
	C182.617310,112.982063 182.324402,111.387093 181.984222,109.534752 
	C177.644974,112.308891 179.094574,113.837593 182.413803,115.177475 
	C182.413803,115.177475 182.519211,115.386574 182.519211,115.386574 
	C182.519211,115.386574 182.804184,115.356377 182.910233,114.577034 
M179.604050,104.784973 
	C179.212326,104.780441 178.820602,104.775902 178.428864,104.771370 
	C178.427856,104.933929 178.415680,105.237656 178.427444,105.238586 
	C178.816269,105.269295 179.207367,105.271027 179.604050,104.784973 
z"/>
<path fill="#150A0A" opacity="1.000000" stroke="none" 
	d="
M105.420975,125.057892 
	C107.518990,128.270065 105.484726,133.585373 110.701050,135.727234 
	C110.790726,136.198349 110.450233,136.375198 110.068832,136.287384 
	C108.598434,136.205704 106.768494,136.605362 106.531387,136.158966 
	C102.879326,129.283386 100.991714,134.717224 99.814629,135.959839 
	C96.727264,136.349213 94.855118,136.585327 92.668030,136.864639 
	C91.931778,136.954361 91.510483,137.000900 90.850372,137.135254 
	C90.414413,137.490280 90.217255,137.757492 90.014099,138.014191 
	C90.008095,138.003677 90.029541,138.029617 89.769234,138.006912 
	C89.334831,137.986923 89.160744,137.989639 88.776154,137.975708 
	C88.565666,137.959061 88.144455,137.928879 88.026154,137.684616 
	C87.596886,136.997742 87.285919,136.555130 86.768822,135.818512 
	C84.702209,135.023926 82.841736,134.523346 80.654907,134.012421 
	C79.893333,133.991074 79.458115,133.980072 78.943848,133.617035 
	C77.574883,132.845657 76.284966,132.426315 74.746964,132.002960 
	C74.498886,131.998947 74.002686,132.003311 73.630074,132.002472 
	C72.513130,132.006683 71.768791,132.011734 71.024460,132.016785 
	C70.759926,131.451889 70.495399,130.886978 70.548363,130.012192 
	C74.250259,127.469177 77.634666,125.236038 81.412170,123.005615 
	C82.591431,123.011765 83.377602,123.015213 84.434479,123.228546 
	C85.413406,124.228394 86.016396,125.161095 86.852539,125.777550 
	C88.427307,126.938568 90.096733,128.627762 91.803719,128.723297 
	C92.951988,128.787567 94.232414,126.490990 95.453712,125.250618 
	C94.974831,125.163033 94.495941,125.075439 94.017059,124.987854 
	C93.342934,122.475754 92.354225,119.997993 92.075310,117.442757 
	C91.736046,114.334656 91.708839,111.125687 92.094788,108.028664 
	C92.353516,105.952499 93.565102,103.995071 94.660568,101.983948 
	C95.593674,101.986069 96.216537,101.988770 96.934998,102.377312 
	C97.531425,108.368156 98.083611,113.969582 98.476151,119.582169 
	C98.533203,120.397903 97.635460,121.240112 97.511765,122.116936 
	C97.229187,124.119965 97.152451,126.152031 96.992104,128.172302 
	C98.962944,127.924690 100.997269,127.893326 102.878662,127.341034 
	C103.864548,127.051620 104.582191,125.848427 105.420975,125.057892 
z"/>
<path fill="#EFEFEF" opacity="1.000000" stroke="none" 
	d="
M149.000702,98.498856 
	C157.819885,95.826324 163.644440,101.315880 162.238937,109.252205 
	C161.895081,111.193871 160.497879,112.948990 159.230530,115.504547 
	C160.201874,117.139969 161.621704,119.530518 163.595276,122.336311 
	C164.407410,124.441917 164.665802,126.132286 164.662689,127.926346 
	C163.934509,128.341766 163.467850,128.653473 162.564392,128.857254 
	C159.158539,128.757187 156.189499,128.765060 153.006866,128.448441 
	C152.533630,126.583527 151.837738,124.963089 152.102646,123.518883 
	C152.706726,120.225502 152.025940,117.724991 149.006165,115.637314 
	C148.995300,113.577133 148.993790,111.929436 149.406219,110.221298 
	C153.698380,110.398300 154.917984,108.636330 153.653900,104.930428 
	C152.133774,104.536896 150.563034,104.130264 148.988617,103.349930 
	C148.990189,101.483780 148.995438,99.991318 149.000702,98.498856 
z"/>
<path fill="#F3F3F3" opacity="1.000000" stroke="none" 
	d="
M148.992264,110.281738 
	C148.993790,111.929436 148.995300,113.577133 148.864410,115.998520 
	C148.775284,118.689819 148.849304,120.607361 148.853455,122.525047 
	C148.857941,124.591942 148.797028,126.658966 148.334869,128.716110 
	C145.603149,128.802750 143.301224,128.899216 140.671143,128.881805 
	C139.269333,128.420883 138.195694,128.073853 137.122040,127.726822 
	C138.873505,121.403038 140.820099,115.091469 139.719528,108.404488 
	C139.476562,106.928299 138.678314,105.552063 138.290192,104.088844 
	C137.893555,102.593582 137.167419,100.881454 137.583267,99.584061 
	C137.851593,98.746880 139.888519,98.145966 141.181808,98.040627 
	C143.476761,97.853691 145.808929,98.124023 148.563110,98.350952 
	C148.995438,99.991318 148.990189,101.483780 148.640991,103.572556 
	C148.528793,106.206490 148.760529,108.244118 148.992264,110.281738 
z"/>
<path fill="#EDEDED" opacity="1.000000" stroke="none" 
	d="
M110.833229,124.919029 
	C114.584785,117.660034 114.874374,110.448135 111.265640,102.928612 
	C110.325241,100.969093 110.023628,97.697395 114.280121,97.946442 
	C116.570908,98.080482 118.875977,97.970284 121.969498,97.970284 
	C121.969498,103.196617 122.333138,108.135841 121.866623,112.995369 
	C121.405472,117.798965 122.766174,121.971321 124.443649,126.747299 
	C122.466209,127.899307 120.733353,128.442947 118.670975,128.896301 
	C117.895622,128.876541 117.449806,128.947098 116.620789,128.902618 
	C113.575119,128.700928 110.396957,129.334656 110.833229,124.919029 
z"/>
<path fill="#F3F2F3" opacity="1.000000" stroke="none" 
	d="
M81.019073,123.002899 
	C77.634666,125.236038 74.250259,127.469177 70.505341,129.703522 
	C70.169594,129.313004 70.194366,128.921280 70.115234,127.847351 
	C70.018921,125.811264 70.026505,124.457382 70.034081,123.103493 
	C70.977745,120.782318 71.921417,118.461151 72.881889,116.098648 
	C67.644699,113.880539 61.907383,117.484116 59.088184,112.182961 
	C58.021694,110.177559 57.973328,107.447243 58.040009,105.063560 
	C58.154099,100.985054 62.528854,97.959030 67.830849,98.789963 
	C68.034470,100.981606 68.009537,102.462524 67.765633,104.241249 
	C66.970970,105.982712 66.395271,107.426361 65.543419,109.562492 
	C71.737495,109.411987 77.157906,108.605049 80.836990,113.999016 
	C80.940895,117.275513 80.979988,120.139206 81.019073,123.002899 
z"/>
<path fill="#F6F6F6" opacity="1.000000" stroke="none" 
	d="
M105.574905,124.792160 
	C104.582191,125.848427 103.864548,127.051620 102.878662,127.341034 
	C100.997269,127.893326 98.962944,127.924690 96.992104,128.172302 
	C97.152451,126.152031 97.229187,124.119965 97.511765,122.116936 
	C97.635460,121.240112 98.533203,120.397903 98.476151,119.582169 
	C98.083611,113.969582 97.531425,108.368156 97.001526,102.049240 
	C96.931366,100.892921 96.890274,100.450500 96.949982,99.706100 
	C97.135422,98.988380 97.220047,98.572647 97.304680,98.156906 
	C100.301315,98.101540 103.298943,98.077530 106.294342,97.983131 
	C110.347481,97.855408 110.707428,101.582146 109.261070,102.878143 
	C105.788101,105.990051 107.471420,109.549088 107.032806,112.902657 
	C106.527252,116.767975 106.157539,120.651054 105.574905,124.792160 
z"/>
<path fill="#F5F5F5" opacity="1.000000" stroke="none" 
	d="
M94.350327,101.984520 
	C93.565102,103.995071 92.353516,105.952499 92.094788,108.028664 
	C91.708839,111.125687 91.736046,114.334656 92.075310,117.442757 
	C92.354225,119.997993 93.342934,122.475754 94.017059,124.987854 
	C94.495941,125.075439 94.974831,125.163033 95.453712,125.250618 
	C94.232414,126.490990 92.951988,128.787567 91.803719,128.723297 
	C90.096733,128.627762 88.427307,126.938568 86.852539,125.777550 
	C86.016396,125.161095 85.413406,124.228394 84.459946,122.759308 
	C83.869324,115.006851 85.670410,107.691978 81.917244,100.688950 
	C82.055702,99.712479 82.120636,99.057457 82.185570,98.402428 
	C85.486977,98.255905 88.788376,98.109383 92.766785,98.160599 
	C93.728210,98.909988 94.012627,99.461632 94.229172,100.340195 
	C94.224304,101.106239 94.287315,101.545380 94.350327,101.984520 
z"/>
<path fill="#E8E8E8" opacity="1.000000" stroke="none" 
	d="
M101.021912,86.582214 
	C113.316216,86.420219 125.610588,86.140350 137.904785,86.147942 
	C143.710007,86.151527 149.523438,86.605453 155.312668,87.096756 
	C156.459030,87.194054 157.511810,88.393974 158.607758,89.085419 
	C158.369476,89.657501 158.131195,90.229591 157.892914,90.801674 
	C137.542740,90.801674 117.192551,90.801674 96.327225,90.749130 
	C95.812080,90.696579 95.572433,90.780685 95.572433,90.780685 
	C95.477737,89.817513 95.383049,88.854332 95.749123,87.502899 
	C97.813896,86.937164 99.417900,86.759689 101.021912,86.582214 
z"/>
<path fill="#F8F8F8" opacity="1.000000" stroke="none" 
	d="
M126.912086,118.014320 
	C121.244850,118.469894 123.398506,114.868126 123.163910,112.517883 
	C127.802414,111.081100 127.802414,111.081100 127.511909,105.168686 
	C126.257088,104.787804 124.897003,104.374977 123.274094,103.882370 
	C123.274094,102.203987 123.274094,100.443260 123.274094,98.459465 
	C127.621277,97.244431 132.252747,97.306915 134.356003,101.746513 
	C135.902283,105.010429 136.401321,109.534714 135.461517,112.977127 
	C134.669876,115.876854 131.599365,118.820335 126.912086,118.014320 
z"/>
<path fill="#F4F4F4" opacity="1.000000" stroke="none" 
	d="
M112.927345,62.017620 
	C113.689102,60.511505 114.289337,58.885944 115.278656,57.548111 
	C115.797432,56.846581 117.109421,56.793232 117.873970,56.202339 
	C125.581467,50.245541 132.447449,54.622410 139.299362,58.040146 
	C140.249649,58.514153 140.591599,60.207748 141.762527,62.327751 
	C132.784348,62.327751 124.896118,62.327751 116.171448,62.259529 
	C114.532455,62.133411 113.729904,62.075516 112.927345,62.017620 
z"/>
<path fill="#EDEDED" opacity="1.000000" stroke="none" 
	d="
M160.861786,63.734341 
	C156.474884,63.354481 152.517212,63.032650 147.684799,62.639687 
	C152.486893,53.931854 161.809998,56.571365 168.465439,52.403603 
	C166.496323,61.935345 165.328888,63.694324 160.861786,63.734341 
z"/>
<path fill="#300304" opacity="1.000000" stroke="none" 
	d="
M183.018402,137.964218 
	C183.231888,139.892929 183.445374,141.821655 183.804596,145.067047 
	C181.536316,144.944229 179.347275,144.825684 177.408966,144.364197 
	C178.244827,143.906921 178.829956,143.792618 180.138306,143.537033 
	C178.577011,142.757965 177.780075,142.360306 176.983139,141.962646 
	C175.991348,143.141266 174.999542,144.319870 173.559860,146.030746 
	C172.758194,144.523941 172.037460,143.169266 171.337341,141.853348 
	C170.781143,142.497589 170.261566,143.099411 169.153198,143.644867 
	C169.030823,140.990158 169.497253,138.391815 170.225555,135.557922 
	C173.652145,134.556976 176.816879,133.791595 179.981613,133.026199 
	C180.983856,134.113800 181.986099,135.201401 182.832703,136.734268 
	C182.790848,137.441101 182.904633,137.702652 183.018402,137.964218 
z"/>
<path fill="#EDEDED" opacity="1.000000" stroke="none" 
	d="
M102.193542,57.854012 
	C103.498940,59.339260 104.426163,60.701759 105.731812,62.620327 
	C99.660675,63.134281 94.490364,63.571980 88.819328,64.052063 
	C87.467575,60.608589 86.108612,57.146740 84.382858,52.750534 
	C90.686333,54.551533 96.250847,56.141399 102.193542,57.854012 
z"/>
<path fill="#0C0807" opacity="1.000000" stroke="none" 
	d="
M179.987091,132.687073 
	C176.816879,133.791595 173.652145,134.556976 169.903000,135.601990 
	C168.884674,135.865112 168.450760,135.848633 167.896133,135.696625 
	C167.534683,135.733109 167.293945,135.905136 167.049255,136.068237 
	C167.045303,136.059326 167.081146,136.081360 166.851196,135.955902 
	C166.413956,135.554459 166.206680,135.278442 165.998047,134.595306 
	C165.639191,132.066315 165.281708,129.944489 164.924210,127.822647 
	C164.665802,126.132286 164.407410,124.441917 163.918732,122.449837 
	C164.193710,120.500793 164.280655,118.498848 165.304489,117.291176 
	C166.757324,115.577492 168.900009,114.448647 171.164734,113.114670 
	C169.916779,116.532150 168.364166,119.966667 166.550797,123.257507 
	C165.167374,125.768143 166.518677,128.617050 169.552612,128.782349 
	C171.998230,128.915604 174.461578,128.723709 177.414215,128.907288 
	C178.604355,129.756378 179.297348,130.374283 179.990326,130.992172 
	C179.991074,131.444107 179.991821,131.896027 179.987091,132.687073 
z"/>
<path fill="#E6E6E6" opacity="1.000000" stroke="none" 
	d="
M69.643799,123.088562 
	C70.026505,124.457382 70.018921,125.811264 70.009712,127.571388 
	C65.756706,129.362000 61.780087,129.400085 59.465069,124.822197 
	C58.697769,123.304886 58.860710,121.317154 58.598343,119.544495 
	C61.115349,119.823486 63.693722,119.862648 66.123062,120.484238 
	C67.309708,120.787865 68.218796,122.176247 69.643799,123.088562 
z"/>
<path fill="#E8E8E8" opacity="1.000000" stroke="none" 
	d="
M67.984596,103.943436 
	C68.009537,102.462524 68.034470,100.981606 68.105522,99.058136 
	C70.842628,98.708488 73.533630,98.801407 76.682281,99.367165 
	C78.050385,100.598038 78.960831,101.356064 79.970856,102.414658 
	C79.922127,104.087723 79.773811,105.460220 79.239349,106.713837 
	C75.230339,105.711113 71.607468,104.827271 67.984596,103.943436 
z"/>
<path fill="#912B2D" opacity="1.000000" stroke="none" 
	d="
M164.855270,144.881302 
	C162.476730,144.354294 160.098190,143.827286 157.230743,142.817780 
	C155.784851,141.558395 154.827896,140.781540 152.604507,138.976608 
	C156.385834,137.394577 159.193207,136.220032 162.353622,135.103821 
	C163.418243,135.139053 164.129822,135.115952 164.909180,135.535110 
	C164.936386,138.945358 164.895828,141.913330 164.855270,144.881302 
z"/>
<path fill="#170303" opacity="1.000000" stroke="none" 
	d="
M121.295670,144.797089 
	C118.048973,144.203156 114.802277,143.609238 111.292816,142.637695 
	C114.022881,140.441559 113.938286,138.180389 111.980827,135.649826 
	C111.980827,135.649826 111.965324,135.323792 112.338943,135.159576 
	C116.138046,134.664169 119.563530,134.332947 122.989014,134.001724 
	C123.578156,134.452148 124.167297,134.902573 124.483597,135.619125 
	C122.518364,136.801697 120.160217,137.308655 119.286804,138.728790 
	C117.914528,140.959991 118.957588,143.310364 121.295670,144.797089 
z"/>
<path fill="#150A0A" opacity="1.000000" stroke="none" 
	d="
M122.863228,133.689346 
	C119.563530,134.332947 116.138046,134.664169 112.351944,134.996902 
	C112.212570,133.913879 112.433800,132.829330 112.755470,131.252426 
	C111.406487,131.616608 110.409996,131.885620 108.154526,132.494522 
	C108.910164,129.628464 109.503387,127.378433 110.464920,125.023712 
	C110.396957,129.334656 113.575119,128.700928 116.625832,129.245239 
	C117.380554,130.297028 117.747047,130.891205 118.113533,131.485367 
	C118.409187,130.652451 118.704842,129.819519 119.000504,128.986603 
	C120.733353,128.442947 122.466209,127.899307 124.469025,127.136780 
	C124.606773,128.249405 124.638054,129.626068 124.286919,130.897079 
	C124.038116,131.797684 123.272415,132.555450 122.863228,133.689346 
z"/>
<path fill="#170303" opacity="1.000000" stroke="none" 
	d="
M162.000580,135.045486 
	C159.193207,136.220032 156.385834,137.394577 152.604507,138.976608 
	C154.827896,140.781540 155.784851,141.558395 156.918671,142.631470 
	C154.754150,145.888046 152.486404,147.830292 150.435471,142.647430 
	C150.286987,142.272217 149.323547,142.219482 148.369476,141.633194 
	C147.998932,140.499710 147.997940,139.749863 147.997284,138.624786 
	C147.999832,137.499115 148.002060,136.748642 148.318497,135.860229 
	C149.730286,135.462540 150.827866,135.202805 152.126099,135.187576 
	C153.886749,134.951279 155.446747,134.470444 157.315918,133.857208 
	C159.083420,133.821320 160.541733,133.917831 162.000671,134.272125 
	C162.001068,134.701752 162.000824,134.873611 162.000580,135.045486 
z"/>
<path fill="#300304" opacity="1.000000" stroke="none" 
	d="
M79.022896,133.969055 
	C79.458115,133.980072 79.893333,133.991074 80.562988,134.273972 
	C81.288559,135.081116 81.779694,135.616364 82.251801,136.520721 
	C83.776299,137.276855 85.319817,137.663864 86.918777,138.416504 
	C87.049568,139.518280 87.124931,140.254456 87.096649,141.331665 
	C86.002533,142.094055 85.012062,142.515427 83.807175,142.802338 
	C83.401146,142.394073 83.209549,142.120239 82.929665,141.502396 
	C81.552299,140.769623 80.263222,140.380859 78.951797,139.740265 
	C78.301720,139.647522 77.673996,139.806641 77.032059,140.304108 
	C77.011269,141.093918 77.004677,141.545364 76.848953,142.229156 
	C76.194000,142.649200 75.688179,142.836914 75.135803,142.676178 
	C75.020927,141.443268 74.952591,140.558762 74.780045,138.325180 
	C74.116402,140.035049 73.926239,140.524979 73.540436,141.010223 
	C73.344788,141.005539 72.953491,140.996078 72.953491,140.996078 
	C72.924019,139.931915 72.894547,138.867752 72.965210,137.194092 
	C73.044472,136.056442 73.023582,135.528290 73.027023,134.681244 
	C73.368454,133.576019 73.685570,132.789673 74.002686,132.003311 
	C74.002686,132.003311 74.498886,131.998947 74.818802,132.358414 
	C76.433441,133.134933 77.728165,133.552002 79.022896,133.969055 
z"/>
<path fill="#111312" opacity="1.000000" stroke="none" 
	d="
M180.355225,130.985321 
	C179.297348,130.374283 178.604355,129.756378 177.833527,128.764618 
	C177.497131,125.751366 176.353867,122.731522 177.271393,120.597855 
	C177.955185,119.007698 181.304520,118.563759 184.522934,117.143158 
	C184.123566,119.366341 183.612564,121.377037 183.445038,123.415955 
	C183.318512,124.956024 183.631058,126.532181 183.913467,128.424713 
	C182.959213,129.497589 181.839661,130.238037 180.355225,130.985321 
z"/>
<path fill="#3C0404" opacity="1.000000" stroke="none" 
	d="
M143.963531,138.954010 
	C143.305161,140.383865 142.646790,141.813705 141.618195,143.619446 
	C139.842514,143.675201 138.437073,143.355057 136.979309,142.689270 
	C135.264969,140.286224 133.602936,138.228836 131.959747,135.811249 
	C131.985352,134.971420 131.992096,134.491760 131.998856,134.012115 
	C131.998856,134.012115 132.002014,134.001831 132.377991,134.003845 
	C133.496155,134.005646 134.238312,134.005417 135.233276,134.029388 
	C135.654221,134.073349 135.822372,134.093140 136.114441,134.360153 
	C137.165848,134.724350 138.093338,134.841354 139.424957,134.956650 
	C140.909164,134.969910 141.989243,134.984863 143.074707,135.221924 
	C143.385269,135.591675 143.690460,135.739319 144.228424,135.929993 
	C144.461197,135.973022 144.931778,136.025024 144.914597,136.338226 
	C144.586472,137.425507 144.275513,138.199585 143.972229,138.979523 
	C143.979889,138.985382 143.963531,138.954010 143.963531,138.954010 
z"/>
<path fill="#8D2829" opacity="1.000000" stroke="none" 
	d="
M121.654114,144.845612 
	C118.957588,143.310364 117.914528,140.959991 119.286804,138.728790 
	C120.160217,137.308655 122.518364,136.801697 124.622383,135.865204 
	C125.175179,135.941116 125.316338,136.037094 125.820992,136.444733 
	C126.765129,137.079285 127.345779,137.402206 127.949661,138.177002 
	C127.950066,139.834427 127.927223,141.039963 127.579636,142.202576 
	C126.478981,143.057526 125.703079,143.955383 124.927185,144.853241 
	C123.955650,144.866867 122.984108,144.880493 121.654114,144.845612 
z"/>
<path fill="#862424" opacity="1.000000" stroke="none" 
	d="
M127.904388,142.245499 
	C127.927223,141.039963 127.950066,139.834427 128.083023,137.933014 
	C129.442398,136.881912 130.691666,136.526688 131.940918,136.171448 
	C133.602936,138.228836 135.264969,140.286224 136.932404,142.971771 
	C136.912384,143.979965 136.886963,144.360031 136.861542,144.740082 
	C135.514389,144.809296 134.167221,144.878510 132.198761,144.716568 
	C130.722061,144.258850 129.866669,144.032288 129.011276,143.805740 
	C129.011276,143.805740 128.683685,143.523605 128.412720,143.276001 
	C128.037003,142.775223 127.957878,142.514252 127.904388,142.245499 
z"/>
<path fill="#150A0A" opacity="1.000000" stroke="none" 
	d="
M109.013832,144.012589 
	C104.485023,144.506180 99.956215,144.999786 95.295036,144.956741 
	C95.441574,143.946335 95.720482,143.472565 96.322662,142.875595 
	C99.787598,142.349167 103.854515,144.737259 105.499199,139.817810 
	C106.001160,140.214462 106.503113,140.611115 107.149567,141.272858 
	C107.867332,142.362839 108.440582,143.187714 109.013832,144.012589 
z"/>
<path fill="#150A0A" opacity="1.000000" stroke="none" 
	d="
M101.050964,86.429375 
	C99.417900,86.759689 97.813896,86.937164 95.806511,87.139954 
	C94.127663,86.985634 92.852188,86.806015 90.922401,86.534248 
	C92.276794,84.220818 93.390167,82.319084 94.771065,80.203712 
	C95.464821,81.553963 95.891060,83.117851 96.370918,84.878471 
	C97.670616,84.960495 99.228333,85.058800 100.894501,85.566086 
	C101.002960,85.975060 101.080017,86.276535 101.050964,86.429375 
z"/>
<path fill="#961D28" opacity="1.000000" stroke="none" 
	d="
M109.251129,144.008194 
	C108.440582,143.187714 107.867332,142.362839 107.172737,140.915161 
	C108.184341,138.986618 109.317284,137.680908 110.450226,136.375198 
	C110.450233,136.375198 110.790726,136.198349 110.899719,136.039536 
	C111.008713,135.880722 111.498962,135.786285 111.739899,135.718048 
	C113.938286,138.180389 114.022881,140.441559 110.969101,142.584991 
	C110.908157,142.909882 110.933807,142.929733 110.706024,143.036301 
	C110.306458,143.424911 110.134666,143.706970 109.962875,143.989014 
	C109.962875,143.989014 109.488434,144.003799 109.251129,144.008194 
z"/>
<path fill="#150A0A" opacity="1.000000" stroke="none" 
	d="
M134.980484,134.005203 
	C134.238312,134.005417 133.496155,134.005646 132.383270,134.002548 
	C132.754318,133.335983 133.558853,132.729584 134.223099,131.996140 
	C135.218735,130.896759 136.115891,129.708191 137.088486,128.142181 
	C138.195694,128.073853 139.269333,128.420883 140.670319,129.214142 
	C140.996750,130.103485 140.995834,130.546600 140.737198,131.201218 
	C140.319839,132.274521 140.160217,133.136353 139.788879,134.104065 
	C139.311111,134.399506 139.125671,134.648972 139.020844,134.958344 
	C138.093338,134.841354 137.165848,134.724350 136.042664,134.175247 
	C135.558167,133.830490 135.269318,133.917847 134.980484,134.005203 
z"/>
<path fill="#912B2D" opacity="1.000000" stroke="none" 
	d="
M95.999390,142.998779 
	C95.720482,143.472565 95.441574,143.946335 95.077232,144.684479 
	C94.554016,144.963226 94.116234,144.977615 93.190926,144.698120 
	C91.860001,143.912170 91.016602,143.420135 90.126114,142.521667 
	C90.062531,140.753372 90.046036,139.391495 90.029541,138.029617 
	C90.029541,138.029617 90.008095,138.003677 90.254234,137.931732 
	C90.696648,137.589005 90.892914,137.318207 91.089188,137.047424 
	C91.510483,137.000900 91.931778,136.954361 92.883789,137.080048 
	C92.389107,140.016586 90.718819,143.070984 95.999390,142.998779 
z"/>
<path fill="#270204" opacity="1.000000" stroke="none" 
	d="
M76.998093,141.996826 
	C77.004677,141.545364 77.011269,141.093918 77.352814,140.311569 
	C78.116562,139.984497 78.545349,139.988312 78.974144,139.992111 
	C80.263222,140.380859 81.552299,140.769623 82.634087,141.652527 
	C82.307022,142.761948 82.187248,143.377228 82.082077,144.226349 
	C82.096680,144.460190 82.133606,144.927322 82.133606,144.927322 
	C81.263580,144.398285 80.393555,143.869263 79.083679,142.915970 
	C78.095245,142.326736 77.546669,142.161774 76.998093,141.996826 
z"/>
<path fill="#300304" opacity="1.000000" stroke="none" 
	d="
M165.234558,144.909103 
	C164.895828,141.913330 164.936386,138.945358 165.198395,135.502533 
	C165.613037,135.019241 165.806213,135.010834 165.999390,135.002441 
	C166.206680,135.278442 166.413956,135.554459 166.833130,136.395538 
	C167.074158,139.603287 167.103302,142.245956 167.132446,144.888611 
	C166.626251,144.904709 166.120041,144.920807 165.234558,144.909103 
z"/>
<path fill="#150A0A" opacity="1.000000" stroke="none" 
	d="
M79.871277,102.114090 
	C78.960831,101.356064 78.050385,100.598038 77.031860,99.552803 
	C77.697899,96.119949 79.673027,96.777367 81.965515,98.072662 
	C82.120636,99.057457 82.055702,99.712479 81.383415,100.892120 
	C80.474464,101.649185 80.172874,101.881638 79.871277,102.114090 
z"/>
<path fill="#2D2D2D" opacity="1.000000" stroke="none" 
	d="
M112.678146,62.252319 
	C113.729904,62.075516 114.532455,62.133411 115.713661,62.328583 
	C116.086746,63.029057 116.081192,63.592255 116.022079,64.433884 
	C115.851624,64.925232 115.734726,65.138138 115.624916,65.715317 
	C113.394753,65.924812 111.228081,65.707123 112.678146,62.252319 
z"/>
<path fill="#150A0A" opacity="1.000000" stroke="none" 
	d="
M90.173203,142.928085 
	C91.016602,143.420135 91.860001,143.912170 92.864388,144.656921 
	C90.202438,145.167664 87.379509,145.425705 84.597519,145.370972 
	C86.076866,144.371216 87.515266,143.684219 89.259315,142.990570 
	C89.767715,142.965317 89.970459,142.946701 90.173203,142.928085 
z"/>
<path fill="#150A0A" opacity="1.000000" stroke="none" 
	d="
M94.297043,100.013283 
	C94.012627,99.461632 93.728210,98.909988 93.221680,98.138824 
	C93.002800,97.188812 93.006035,96.458321 93.004631,95.363907 
	C93.000000,95.000000 92.997368,95.003433 92.997368,95.003433 
	C95.223579,94.646652 96.677597,95.321373 97.034302,97.989998 
	C97.220047,98.572647 97.135422,98.988380 96.630692,99.701836 
	C95.572731,100.004128 94.934891,100.008705 94.297043,100.013283 
z"/>
<path fill="#150A0A" opacity="1.000000" stroke="none" 
	d="
M131.959747,135.811249 
	C130.691666,136.526688 129.442398,136.881912 128.059784,137.481125 
	C127.345779,137.402206 126.765129,137.079285 126.063080,136.528137 
	C127.682465,135.533386 129.423248,134.766876 131.581451,134.006241 
	C131.992096,134.491760 131.985352,134.971420 131.959747,135.811249 
z"/>
<path fill="#2D2D2D" opacity="1.000000" stroke="none" 
	d="
M140.899704,76.028122 
	C138.879349,77.996948 136.753387,78.641335 135.548035,74.603409 
	C137.215469,74.796982 138.879150,75.343552 140.899704,76.028122 
z"/>
<path fill="#150A0A" opacity="1.000000" stroke="none" 
	d="
M76.848953,142.229156 
	C77.546669,142.161774 78.095245,142.326736 78.818100,142.724945 
	C77.477631,143.504532 75.962875,144.050858 74.213852,144.060883 
	C73.985039,143.342606 73.990486,143.160629 74.290627,143.039703 
	C74.784325,143.075348 74.983345,143.049973 75.182358,143.024612 
	C75.688179,142.836914 76.194000,142.649200 76.848953,142.229156 
z"/>
<path fill="#8D2829" opacity="1.000000" stroke="none" 
	d="
M88.953659,142.997223 
	C87.515266,143.684219 86.076866,144.371216 84.306427,145.159271 
	C83.566978,145.172836 83.159554,145.085312 82.442871,144.962555 
	C82.133606,144.927322 82.096680,144.460190 82.377647,144.203064 
	C83.112946,143.609558 83.567276,143.273178 84.021599,142.936798 
	C85.012062,142.515427 86.002533,142.094055 87.414680,141.337158 
	C88.263474,141.006073 88.690575,141.010529 89.090492,141.345322 
	C89.026756,142.116180 88.990211,142.556702 88.953659,142.997223 
z"/>
<path fill="#0C0807" opacity="1.000000" stroke="none" 
	d="
M147.996948,139.000000 
	C147.997940,139.749863 147.998932,140.499710 147.997528,141.624481 
	C146.666901,141.241745 145.338669,140.484116 143.987000,139.340240 
	C143.963531,138.954010 143.979889,138.985382 144.376160,138.989243 
	C145.847260,138.995407 146.922104,138.997696 147.996948,139.000000 
z"/>
<path fill="#862424" opacity="1.000000" stroke="none" 
	d="
M167.438629,144.912750 
	C167.103302,142.245956 167.074158,139.603287 167.063080,136.520996 
	C167.081146,136.081360 167.045303,136.059326 167.294571,136.024658 
	C167.543839,135.989990 168.016846,135.832153 168.016846,135.832153 
	C168.450760,135.848633 168.884674,135.865112 169.641144,135.837555 
	C169.497253,138.391815 169.030823,140.990158 168.897522,143.803894 
	C168.735382,144.325180 168.240112,144.631042 167.438629,144.912750 
z"/>
<path fill="#170303" opacity="1.000000" stroke="none" 
	d="
M137.092194,145.047379 
	C136.886963,144.360031 136.912384,143.979965 136.984711,143.317413 
	C138.437073,143.355057 139.842514,143.675201 141.616379,143.987366 
	C140.430817,144.437820 138.876831,144.896255 137.092194,145.047379 
z"/>
<path fill="#EDEDED" opacity="1.000000" stroke="none" 
	d="
M177.889801,100.317505 
	C179.961411,102.884422 177.950165,102.925865 175.638367,103.005280 
	C176.067963,102.200134 176.848206,101.393646 177.889801,100.317505 
z"/>
<path fill="#170303" opacity="1.000000" stroke="none" 
	d="
M127.579628,142.202576 
	C127.957878,142.514252 128.037003,142.775223 128.204742,143.217072 
	C127.282806,144.067261 126.297874,144.728806 125.120071,145.121796 
	C125.703079,143.955383 126.478981,143.057526 127.579628,142.202576 
z"/>
<path fill="#270204" opacity="1.000000" stroke="none" 
	d="
M73.630074,132.002472 
	C73.685570,132.789673 73.368454,133.576019 72.779732,134.680298 
	C72.508118,134.998215 72.013596,134.998016 72.013596,134.998016 
	C71.682152,134.227798 71.350708,133.457596 71.021866,132.352081 
	C71.768791,132.011734 72.513130,132.006683 73.630074,132.002472 
z"/>
<path fill="#270204" opacity="1.000000" stroke="none" 
	d="
M73.995941,142.978653 
	C73.990486,143.160629 73.985039,143.342606 73.962105,143.797867 
	C73.458458,143.186569 72.972298,142.302017 72.719818,141.206757 
	C72.953491,140.996078 73.344788,141.005539 73.627182,141.330597 
	C73.938362,142.096649 73.967155,142.537659 73.995941,142.978653 
z"/>
<path fill="#150A0A" opacity="1.000000" stroke="none" 
	d="
M95.288681,90.905304 
	C95.572433,90.780685 95.812080,90.696579 95.892914,90.794487 
	C96.232994,91.606544 96.492249,92.320694 96.751503,93.034843 
	C96.385849,93.180244 96.020203,93.325638 95.654549,93.471039 
	C95.438004,92.657333 95.221466,91.843628 95.288681,90.905304 
z"/>
<path fill="#170303" opacity="1.000000" stroke="none" 
	d="
M129.115143,144.106506 
	C129.866669,144.032288 130.722061,144.258850 131.793488,144.739777 
	C131.079346,144.798508 130.149185,144.602890 129.115143,144.106506 
z"/>
<path fill="#912B2D" opacity="1.000000" stroke="none" 
	d="
M176.947845,142.301041 
	C177.780075,142.360306 178.577011,142.757965 180.138306,143.537033 
	C178.829956,143.792618 178.244827,143.906921 177.343353,144.006348 
	C176.988861,143.540787 176.950714,143.090103 176.947845,142.301041 
z"/>
<path fill="#150A0A" opacity="1.000000" stroke="none" 
	d="
M72.028259,135.282242 
	C72.013596,134.998016 72.508118,134.998215 72.755402,134.999176 
	C73.023582,135.528290 73.044472,136.056442 72.945175,136.795441 
	C72.564308,136.526337 72.303612,136.046402 72.028259,135.282242 
z"/>
<path fill="#170303" opacity="1.000000" stroke="none" 
	d="
M147.364685,144.244415 
	C147.379318,144.007629 147.507706,143.878601 147.636078,143.749573 
	C147.583527,143.950439 147.530975,144.151306 147.364685,144.244415 
z"/>
<path fill="#150A0A" opacity="1.000000" stroke="none" 
	d="
M131.989471,129.256927 
	C132.093613,129.415237 132.042191,129.574738 131.990768,129.734253 
	C131.938492,129.575546 131.886215,129.416824 131.989471,129.256927 
z"/>
<path fill="#0C0807" opacity="1.000000" stroke="none" 
	d="
M183.015656,137.726913 
	C182.904633,137.702652 182.790848,137.441101 182.843323,137.097260 
	C183.009552,137.014984 183.012878,137.489609 183.015656,137.726913 
z"/>
<path fill="#150A0A" opacity="1.000000" stroke="none" 
	d="
M93.001709,94.998680 
	C92.885330,94.860954 92.767242,94.724556 92.649155,94.588150 
	C92.731056,94.636826 92.812958,94.685501 92.946114,94.868805 
	C92.997368,95.003433 93.000000,95.000000 93.001709,94.998680 
z"/>
<path fill="#150A0A" opacity="1.000000" stroke="none" 
	d="
M110.193108,143.884903 
	C110.134666,143.706970 110.306458,143.424911 110.708267,143.039581 
	C110.766647,143.217789 110.594994,143.499298 110.193108,143.884903 
z"/>
<path fill="#EDEDED" opacity="1.000000" stroke="none" 
	d="
M182.224472,115.090797 
	C179.094574,113.837593 177.644974,112.308891 181.984222,109.534752 
	C182.324402,111.387093 182.617310,112.982063 182.695068,114.937881 
	C182.479904,115.298721 182.224472,115.090797 182.224472,115.090797 
z"/>
<path fill="#EDEDED" opacity="1.000000" stroke="none" 
	d="
M179.601105,105.030998 
	C179.207367,105.271027 178.816269,105.269295 178.427444,105.238586 
	C178.415680,105.237656 178.427856,104.933929 178.428864,104.771362 
	C178.820602,104.775902 179.212326,104.780441 179.601105,105.030998 
z"/>
<path fill="#111312" opacity="1.000000" stroke="none" 
	d="
M182.319138,115.134140 
	C182.224472,115.090797 182.479904,115.298721 182.642044,115.327545 
	C182.804184,115.356377 182.519211,115.386574 182.519211,115.386574 
	C182.519211,115.386574 182.413803,115.177475 182.319138,115.134140 
z"/>
<path fill="#3C0404" opacity="1.000000" stroke="none" 
	d="
M96.322662,142.875595 
	C90.718819,143.070984 92.389107,140.016586 93.198746,137.036850 
	C94.855118,136.585327 96.727264,136.349213 99.814629,135.959839 
	C100.991714,134.717224 102.879326,129.283386 106.531387,136.158966 
	C106.768494,136.605362 108.598434,136.205704 110.068832,136.287384 
	C109.317284,137.680908 108.184341,138.986618 107.028229,140.650055 
	C106.503113,140.611115 106.001160,140.214462 105.499199,139.817810 
	C103.854515,144.737259 99.787598,142.349167 96.322662,142.875595 
z"/>
<path fill="#010101" opacity="1.000000" stroke="none" 
	d="
M79.970863,102.414658 
	C80.172874,101.881638 80.474464,101.649185 81.309891,101.213562 
	C85.670410,107.691978 83.869324,115.006851 84.189240,122.549416 
	C83.377602,123.015213 82.591431,123.011765 81.412170,123.005615 
	C80.979988,120.139206 80.940895,117.275513 80.897324,113.536591 
	C80.470406,110.718483 80.047951,108.775597 79.625488,106.832718 
	C79.773811,105.460220 79.922127,104.087723 79.970863,102.414658 
z"/>
<path fill="#8D2829" opacity="1.000000" stroke="none" 
	d="
M86.863335,138.050888 
	C85.319817,137.663864 83.776299,137.276855 82.636551,136.482422 
	C84.351860,136.087509 85.663414,136.100021 86.974960,136.112518 
	C87.285919,136.555130 87.596886,136.997742 87.705627,137.716797 
	C87.290054,138.012451 87.076691,138.031662 86.863335,138.050888 
z"/>
<path fill="#270204" opacity="1.000000" stroke="none" 
	d="
M86.768822,135.818527 
	C85.663414,136.100021 84.351860,136.087509 82.655571,136.113312 
	C81.779694,135.616364 81.288559,135.081116 80.889343,134.284302 
	C82.841736,134.523346 84.702209,135.023926 86.768822,135.818527 
z"/>
<path fill="#270204" opacity="1.000000" stroke="none" 
	d="
M78.943848,133.617035 
	C77.728165,133.552002 76.433441,133.134933 75.066879,132.362427 
	C76.284966,132.426315 77.574883,132.845657 78.943848,133.617035 
z"/>
<path fill="#010101" opacity="1.000000" stroke="none" 
	d="
M94.229172,100.340195 
	C94.934891,100.008705 95.572731,100.004128 96.529877,100.003815 
	C96.890274,100.450500 96.931366,100.892921 96.905930,101.663406 
	C96.216537,101.988770 95.593674,101.986069 94.660568,101.983948 
	C94.287315,101.545380 94.224304,101.106239 94.229172,100.340195 
z"/>
<path fill="#912B2D" opacity="1.000000" stroke="none" 
	d="
M86.918777,138.416504 
	C87.076691,138.031662 87.290054,138.012451 87.823929,137.961060 
	C88.144455,137.928879 88.565666,137.959061 88.832733,138.351196 
	C89.105759,139.500534 89.111717,140.257751 89.117683,141.014984 
	C88.690575,141.010529 88.263474,141.006073 87.518326,140.996124 
	C87.124931,140.254456 87.049568,139.518280 86.918777,138.416504 
z"/>
<path fill="#3C0404" opacity="1.000000" stroke="none" 
	d="
M89.090492,141.345306 
	C89.111717,140.257751 89.105759,139.500534 89.043221,138.367828 
	C89.160744,137.989639 89.334831,137.986923 89.769234,138.006912 
	C90.046036,139.391495 90.062531,140.753372 90.126114,142.521667 
	C89.970459,142.946701 89.767715,142.965317 89.259315,142.990570 
	C88.990211,142.556702 89.026756,142.116180 89.090492,141.345306 
z"/>
<path fill="#3C0404" opacity="1.000000" stroke="none" 
	d="
M90.850372,137.135254 
	C90.892914,137.318207 90.696648,137.589005 90.260239,137.942230 
	C90.217255,137.757492 90.414413,137.490280 90.850372,137.135254 
z"/>
<path fill="#0C0807" opacity="1.000000" stroke="none" 
	d="
M162.000046,134.014343 
	C160.541733,133.917831 159.083420,133.821320 157.254883,133.522888 
	C155.561829,131.901047 154.238968,130.481140 152.993011,128.990005 
	C153.069916,128.918793 153.220459,128.772934 153.220459,128.772934 
	C156.189499,128.765060 159.158539,128.757187 162.566116,129.247101 
	C162.669785,131.168045 162.334915,132.591202 162.000046,134.014343 
z"/>
<path fill="#0C0807" opacity="1.000000" stroke="none" 
	d="
M148.764648,128.725937 
	C148.797028,126.658966 148.857941,124.591942 148.853455,122.525047 
	C148.849304,120.607361 148.775284,118.689819 148.873764,116.411011 
	C152.025940,117.724991 152.706726,120.225502 152.102646,123.518883 
	C151.837738,124.963089 152.533630,126.583527 153.006866,128.448441 
	C153.220459,128.772934 153.069916,128.918793 152.608398,128.971680 
	C151.119080,129.036163 150.091309,129.047745 148.988052,128.976654 
	C148.912582,128.893997 148.764648,128.725937 148.764648,128.725937 
z"/>
<path fill="#111312" opacity="1.000000" stroke="none" 
	d="
M149.406189,110.221298 
	C148.760529,108.244118 148.528793,106.206490 148.644684,103.946243 
	C150.563034,104.130264 152.133774,104.536896 153.653900,104.930428 
	C154.917984,108.636330 153.698380,110.398300 149.406189,110.221298 
z"/>
<path fill="#150A0A" opacity="1.000000" stroke="none" 
	d="
M162.000671,134.272125 
	C162.334915,132.591202 162.669785,131.168045 163.002930,129.355042 
	C163.467850,128.653473 163.934509,128.341766 164.662689,127.926346 
	C165.281708,129.944489 165.639191,132.066315 165.998047,134.595306 
	C165.806213,135.010834 165.613037,135.019241 165.130615,135.060242 
	C164.129822,135.115952 163.418243,135.139053 162.353622,135.103821 
	C162.000824,134.873611 162.001068,134.701752 162.000671,134.272125 
z"/>
<path fill="#0C0807" opacity="1.000000" stroke="none" 
	d="
M140.994934,130.989731 
	C140.995834,130.546600 140.996750,130.103485 140.998474,129.328018 
	C143.301224,128.899216 145.603149,128.802750 148.334869,128.716110 
	C148.764648,128.725937 148.912582,128.893997 149.013611,129.322327 
	C150.051575,131.481445 150.988510,133.212250 151.925446,134.943054 
	C150.827866,135.202805 149.730286,135.462540 147.935089,135.861359 
	C146.468918,136.008621 145.700348,136.016830 144.931778,136.025024 
	C144.931778,136.025024 144.461197,135.973022 144.121033,135.738922 
	C143.593689,135.266083 143.356506,135.097748 143.069321,134.999817 
	C141.989243,134.984863 140.909164,134.969910 139.424957,134.956650 
	C139.125671,134.648972 139.311111,134.399506 140.165390,134.103912 
	C141.506699,133.998337 142.259766,133.998795 143.362091,133.991058 
	C144.405441,133.368011 145.099548,132.753174 145.793640,132.138351 
	C144.869598,132.091141 143.945541,132.043915 142.759216,131.889557 
	C141.996277,131.518188 141.495605,131.253967 140.994934,130.989731 
z"/>
<path fill="#010101" opacity="1.000000" stroke="none" 
	d="
M118.670975,128.896301 
	C118.704842,129.819519 118.409187,130.652451 118.113533,131.485367 
	C117.747047,130.891205 117.380554,130.297028 117.009018,129.360260 
	C117.449806,128.947098 117.895622,128.876541 118.670975,128.896301 
z"/>
<path fill="#150A0A" opacity="1.000000" stroke="none" 
	d="
M79.239349,106.713837 
	C80.047951,108.775597 80.470406,110.718483 80.832512,113.123795 
	C77.157906,108.605049 71.737495,109.411987 65.543419,109.562492 
	C66.395271,107.426361 66.970970,105.982712 67.765633,104.241241 
	C71.607468,104.827271 75.230339,105.711113 79.239349,106.713837 
z"/>
<path fill="#300304" opacity="1.000000" stroke="none" 
	d="
M167.896133,135.696625 
	C168.016846,135.832153 167.543839,135.989990 167.298523,136.033569 
	C167.293945,135.905136 167.534683,135.733109 167.896133,135.696625 
z"/>
<path fill="#150A0A" opacity="1.000000" stroke="none" 
	d="
M152.126099,135.187576 
	C150.988510,133.212250 150.051575,131.481445 149.089081,129.404984 
	C150.091309,129.047745 151.119080,129.036163 152.531494,129.042908 
	C154.238968,130.481140 155.561829,131.901047 156.945709,133.655304 
	C155.446747,134.470444 153.886749,134.951279 152.126099,135.187576 
z"/>
<path fill="#010101" opacity="1.000000" stroke="none" 
	d="
M144.914597,136.338226 
	C145.700348,136.016830 146.468918,136.008621 147.620880,135.999298 
	C148.002060,136.748642 147.999832,137.499115 147.997284,138.624786 
	C146.922104,138.997696 145.847260,138.995407 144.368484,138.983383 
	C144.275513,138.199585 144.586472,137.425507 144.914597,136.338226 
z"/>
<path fill="#912B2D" opacity="1.000000" stroke="none" 
	d="
M74.290627,143.039703 
	C73.967155,142.537659 73.938362,142.096649 73.822830,141.335297 
	C73.926239,140.524979 74.116402,140.035049 74.780045,138.325180 
	C74.952591,140.558762 75.020927,141.443268 75.135803,142.676178 
	C74.983345,143.049973 74.784325,143.075348 74.290627,143.039703 
z"/>
<path fill="#150A0A" opacity="1.000000" stroke="none" 
	d="
M78.951797,139.740265 
	C78.545349,139.988312 78.116562,139.984497 77.367020,139.973221 
	C77.673996,139.806641 78.301720,139.647522 78.951797,139.740265 
z"/>
<path fill="#912B2D" opacity="1.000000" stroke="none" 
	d="
M83.807175,142.802338 
	C83.567276,143.273178 83.112946,143.609558 82.363052,143.969223 
	C82.187248,143.377228 82.307022,142.761948 82.722374,141.996552 
	C83.209549,142.120239 83.401146,142.394073 83.807175,142.802338 
z"/>
<path fill="#150A0A" opacity="1.000000" stroke="none" 
	d="
M143.074707,135.221909 
	C143.356506,135.097748 143.593689,135.266083 143.888260,135.695892 
	C143.690460,135.739319 143.385269,135.591675 143.074707,135.221909 
z"/>
<path fill="#010101" opacity="1.000000" stroke="none" 
	d="
M135.233276,134.029388 
	C135.269318,133.917847 135.558167,133.830490 135.918762,133.928040 
	C135.822372,134.093140 135.654221,134.073349 135.233276,134.029388 
z"/>
<path fill="#010101" opacity="1.000000" stroke="none" 
	d="
M143.012833,133.999268 
	C142.259766,133.998795 141.506699,133.998337 140.377121,133.998016 
	C140.160217,133.136353 140.319839,132.274521 140.737198,131.201218 
	C141.495605,131.253967 141.996277,131.518188 142.754028,132.223389 
	C143.011688,133.109314 143.012253,133.554291 143.012833,133.999268 
z"/>
<path fill="#150A0A" opacity="1.000000" stroke="none" 
	d="
M143.362091,133.991058 
	C143.012253,133.554291 143.011688,133.109314 143.016296,132.330521 
	C143.945541,132.043915 144.869598,132.091141 145.793640,132.138351 
	C145.099548,132.753174 144.405441,133.368011 143.362091,133.991058 
z"/>
</svg>